<?xml version="1.0" encoding="utf-8"?>
<!-- Generator: Adobe Illustrator 24.3.0, SVG Export Plug-In . SVG Version: 6.00 Build 0)  -->
<svg version="1.1" id="Layer_1" xmlns="http://www.w3.org/2000/svg" xmlns:xlink="http://www.w3.org/1999/xlink" x="0px" y="0px"
	 width="494px" height="164px" viewBox="0 0 494 164" style="enable-background:new 0 0 494 164;" xml:space="preserve">
<style type="text/css">
	.st0{fill:#8CCAFF;}
	.st1{fill:#83CBAA;}
	.st2{fill:#FCED63;}
	.st3{fill:#FFA8A2;}
	.st4{fill:#D6C0E9;}
	.st5{fill:#4872B0;}
	.st6{fill:#FFFFFF;}
</style>
<g>
	<path class="st0" d="M31,136.1c-4.9,0-8.8-4-8.8-8.9c0-4.9,3.9-8.8,8.8-8.8s8.8,4,8.8,8.8C39.9,132.1,35.9,136.1,31,136.1
		 M31,107.6c-11,0-19.9,8.9-19.9,19.9c0,11,8.9,19.9,19.9,19.9s19.9-8.9,19.9-19.9C50.9,116.5,42,107.6,31,107.6"/>
	<path class="st0" d="M4,161v-8c0-0.8,0.7-1.5,1.5-1.5h51.4c0.8,0,1.5,0.7,1.5,1.5v8c0,0.8-0.7,1.5-1.5,1.5H5.5
		C4.7,162.4,4,161.8,4,161"/>
	<path class="st1" d="M88.4,140.4v-31.9c0-1.7,1.3-3,3-3h0c27.8,0,50.4,21.3,50.4,47.6c0,1.4-0.1,2.8-0.2,4.2
		c-0.1,1.5-1.4,2.7-3,2.7h-29.5C97.6,160,88.4,151.2,88.4,140.4"/>
	<path class="st2" d="M225.8,161h-12.1c-1.5,0-3-0.9-3.7-2.2l-3.2-6l-4-7.6c-0.4-0.7-1.4-0.7-1.7,0l-4.1,7.6l-3.2,6
		c-0.7,1.4-2.2,2.2-3.7,2.2h-12.1c-1.7,0-3-1.5-2.9-3.2l5.1-47.9c0.2-1.8,1.7-3.2,3.5-3.2h36.2c1.8,0,3.3,1.4,3.5,3.2l5.1,47.9
		C228.9,159.5,227.5,161,225.8,161"/>
	<path class="st3" d="M321.3,109.7c0,0.4,0,0.7-0.1,1.1c-1.4,27.2-23.1,49-50.1,50.5c-0.4,0-0.8,0-1.2,0.1c-1.4-0.2-2.5-1.4-2.6-2.8
		v-25.1c0.1-1.4,1.2-2.6,2.6-2.8c0.1,0,0.2,0,0.3,0c11-1,19.8-9.7,21.2-20.6c0-0.2,0.1-0.5,0.1-0.7c0.3-1.4,1.5-2.3,3-2.3h23.7
		C319.8,107.1,321.1,108.2,321.3,109.7"/>
	<path class="st4" d="M436.6,115.5V108c0-0.8,0.7-1.4,1.5-1.4h51.4c0.8,0,1.5,0.6,1.5,1.4v7.5c0,0.8-0.7,1.4-1.5,1.4H438
		C437.2,116.9,436.6,116.3,436.6,115.5"/>
	<path class="st4" d="M436.6,158.6v-7.5c0-0.8,0.7-1.4,1.5-1.4h51.4c0.8,0,1.5,0.6,1.5,1.4v7.5c0,0.8-0.7,1.4-1.5,1.4H438
		C437.2,160,436.6,159.3,436.6,158.6"/>
	<path class="st4" d="M436.6,136.6v-7.5c0-0.8,0.7-1.4,1.5-1.4h51.4c0.8,0,1.5,0.6,1.5,1.4v7.5c0,0.8-0.7,1.4-1.5,1.4H438
		C437.2,138,436.6,137.4,436.6,136.6"/>
	<path class="st6" d="M15.8,9.8c0,0,0.5,20,0.7,23.8c0,0,0,1.2,2.7,1.1c2.7,0,16.2-0.8,18.5-0.5c2.4,0.4,3.1,3.1,3.1,3.1
		s0.1,2.1-0.3,2.5c-0.5,0.4-8.9,0.9-11.2,1.2c-2.2,0.3-10.7,0.8-12.9,0.3c0,0,0.8-0.3,0.2,10.4c-0.7,11.3,1.7,20.6,0.5,22.2
		c-1.3,1.7-12.6-1.6-12.6-1.6s0.3-18.1,0.1-20.9C4.4,48.9,3.1,6.9,3.8,6c0.7-0.9,7.8-2.1,21.3-2.8C38.6,2.6,41.3,3.6,42,4
		c0.7,0.4,7.7,3.9,6.8,4.7C47.8,9.5,15.8,9.8,15.8,9.8"/>
	<path class="st6" d="M353.3,9.8c0,0,0.5,20,0.7,23.8c0,0,0,1.2,2.6,1.1c2.7,0,16.2-0.8,18.5-0.5c2.4,0.4,3.1,3.1,3.1,3.1
		s0.1,2.1-0.3,2.5c-0.4,0.4-8.9,0.4-11.1,0.6c-2.2,0.3-9.5,1.4-11.8,0.9c0,0-1-0.2,0.2,10.4c1.2,10.6,2.9,20.6,1.6,22.2
		c-1.3,1.7-13.2-1.6-13.2-1.6s-1.4-18.1-1.6-20.9c-0.2-2.8-1.6-43-0.8-43.9c0.7-0.9,7.8-3.8,21.3-4.5c13.5-0.6,16.2,0.4,16.9,0.8
		c0.7,0.4,7.7,3.9,6.8,4.7C385.3,9.5,353.3,9.8,353.3,9.8"/>
	<path class="st6" d="M57.2,4c0,0-0.7,5.1-1,8.4c-0.3,3.3-1,41.5-0.8,48.6c0.2,7.1-0.7,11,0.5,11.5c1.2,0.5,27.8,1,29.6,1
		c1.8,0,7-0.8,6.1-3.8C90.3,65.5,70.5,66,70.5,66s-0.5-20.4,0.3-33.7c0.7-11.8,1-26.8,1-26.8S62.5,2,57.2,4"/>
	<path class="st6" d="M118.6,28.7c0,0,9.2-25,10.4-26c1.2-1,13,4.1,13,4.1S129.7,38.4,128,44c-1.6,5.6-9.9,29.1-10.7,29.6
		c-0.8,0.5-10.5,0.1-10.8-0.6c-0.3-0.7,6.6-25.9,6.6-25.9s-1,0-1.8-1c-0.8-1-16-38-16-38.9c0-0.8,12.4-4.4,13-3.7
		C108.9,4.3,118.6,28.7,118.6,28.7"/>
	<path class="st6" d="M150.4,6.8c0,0,0.8,24.3,0.7,28.2c-0.2,3.9-1.2,35.4-0.7,37.4c0.5,2,14.1,0.8,14.1,0.8s0.4-36.7,0.4-38.2
		c0-1.5,0.8-28.4,0-29.2c-0.8-0.8-9.2-2.6-9.9-2.5C154.4,3.5,150.3,4.9,150.4,6.8"/>
	<path class="st6" d="M223.1,3.5c0,0-0.8,21.7-0.8,24.9c0,3.1-0.3,17.9-0.3,17.9s-9.9-17.8-13.7-24.1c-5.9-9.7-12-18.1-13.4-18.6
		C193.6,3,183.5,2.4,183,3c-0.5,0.7-1,26.7-1,26.7s-0.6,36.4,0.2,44.1c0,0,10.1,1.3,12.5,1c0,0-0.1-51.4-0.1-52.2
		c0-0.8,11.4,23.7,19.1,33.9c7.7,10.4,10.5,16.1,12.8,16.1s8.2,0.9,8.2-0.2c0-1.1,1.6-66.7,1.3-67.8c-0.3-1.2-9.4-2.8-10.5-2.8
		C224.4,1.9,223.1,3.5,223.1,3.5"/>
	<path class="st6" d="M265.1,12.8c0,0,7.5-4.7,15.9-2.4c0,0,3.8,1.1,3.8-0.7c0-1.8-6.2-4.6-10.4-5.7c-4.1-1.2-17.4-2.5-21.9,5.3
		c-4.4,7.7-8.4,20.9-4.8,34.9c3.6,14,10.4,24.2,17.8,27.7c5.9,2.8,24.8,1.1,28.3-8c3.4-9.1,1.4-27.1,0.8-28.5
		c-1.4-3.4-11.4-2.9-11.4-2.9s-17,0.3-17.4,1.8c-0.5,1.5-0.2,4,0.5,3.7c0.7-0.3,15.3,0,15.3,0s0.7,21-2,22.4
		c-2.6,1.5-5.8,4.1-10.4,2.1c-1.9-0.8-10-17.8-8.6-35.3C260.8,27.4,261.2,14.4,265.1,12.8"/>
	<path class="st6" d="M422.3,47.8c-0.2,5.2-1.7,10.3-2.3,13.6c-0.7,3.3-4.6,6.8-7.5,7c-2.9,0.2-5.3-1.6-7.1-6.7
		c-1.8-5.1-1.2-34,1.1-41c2.3-7,10-8.7,10-8.7C422.6,10.1,422.6,42.6,422.3,47.8 M430.2,14.8c-7.9-8.9-15.7-11.5-21.4-11.7
		c-5.7-0.2-13.2,6.3-13.2,6.3c-8.6,9.1-3.8,45.8-1.9,54.2c1.8,8.4,7,10.5,18.6,11.2c11.6,0.7,16.9-7.3,18.9-10.4
		C433.3,61.3,438.1,23.6,430.2,14.8"/>
	<path class="st6" d="M465.9,29.9c0,0,10.8-22.1,13.2-26.3c0.3-0.6,3.7,0.4,4.6,0.5c0.8,0.1,6.8,3,6.7,5.5
		c0,2.5-16.3,32.9-16.3,32.9s13.9,27,14.2,29c0.3,2-1.6,2.7-3.6,2.5c-2-0.2-8.1-0.6-9-2.1c-0.9-1.6-10.2-18.4-10.2-18.4
		S454.5,73.5,453.5,74c-1,0.5-12.8-0.6-13.2-1.2c-0.4-0.6,16.8-30.7,16.8-30.7S440.3,8.2,440.4,6.8c0.1-1.3,11.7-1.3,12.9-0.9
		C454.4,6.4,465.9,29.9,465.9,29.9"/>
	<g>
		<path class="st5" d="M373,126.5c-0.5-0.3-1-0.1-1.4,0c-3.1,1.2-4.3,3.4-3.9,6.6c0.6,4.2,4,6.7,7.6,7.3c4.7,0.8,10.6-2.6,12.4-8
			c1.6-4.8,0.6-9.1-2.3-13c-2.5-3.4-5.9-5.5-10.1-6.1c-5-0.8-9.6,0.5-13.6,3.5c-4.5,3.4-7,8-7.5,13.6c-0.5,6,1.4,11.2,5.3,15.8
			c3.2,3.7,7.2,6.2,12.1,7.2c5.2,1.1,10.3,0.5,15.2-1.7c4.2-1.9,7.6-4.8,10.4-8.6c2.4-3.3,3.8-7,4.4-11.1c0.4-3.2,4-4.6,6.3-3
			c0.9,0.7,1.5,1.6,1.5,2.8c0,2.2-0.6,4.2-1.2,6.2c-1.5,5.1-4.1,9.5-7.8,13.3c-5.5,5.6-12.1,9-19.9,10c-6.4,0.8-12.4-0.3-18.1-3.2
			c-2.1-1.1-4-2.5-5.8-4.1c-2.1-1.9-4-4-5.6-6.3c-2.5-3.8-3.9-8-4.4-12.5c-0.6-5.5,0.3-10.7,2.8-15.6c2.4-4.7,6-8.2,10.5-10.9
			c3-1.7,6.2-2.9,9.6-3.2c9.5-0.7,17.7,2.2,23.4,11.3c1.8,3,2.9,6.2,3.1,9.7c0.3,5.3-1,10.2-4.5,14.3c-3.4,4-7.6,6.5-12.9,7.2
			c-9.1,1.1-17.2-4.9-18.7-13.5c-0.8-4.4,0.2-8.6,3.4-11.8c3.4-3.4,7.5-5,12.3-3.6c4.3,1.2,7.1,4.9,7.2,9.2c0.1,3.3-2.6,6.8-6,7
			c-1.6,0.1-3.1,0-4.4-1c-2.5-1.9-2.5-5.5-0.1-7.4C372.7,126.9,372.9,126.8,373,126.5"/>
	</g>
</g>
</svg>
